<mxfile host="app.diagrams.net" agent="Mozilla/5.0 (Windows NT 10.0; Win64; x64) AppleWebKit/537.36 (KHTML, like Gecko) Chrome/133.0.0.0 Safari/537.36" version="26.0.16">
  <diagram name="Página-1" id="-5CQcdj430jWBMGuvR-0">
    <mxGraphModel dx="191" dy="99" grid="1" gridSize="10" guides="1" tooltips="1" connect="1" arrows="1" fold="1" page="1" pageScale="1" pageWidth="827" pageHeight="1169" math="0" shadow="0">
      <root>
        <mxCell id="0" />
        <mxCell id="1" parent="0" />
        <mxCell id="Ok7dYE3IAMVengFxnzop-202" value="" style="endArrow=none;html=1;rounded=0;entryX=1;entryY=0.5;entryDx=0;entryDy=0;exitX=0.003;exitY=0.525;exitDx=0;exitDy=0;exitPerimeter=0;" parent="1" source="Ok7dYE3IAMVengFxnzop-203" target="Ok7dYE3IAMVengFxnzop-7" edge="1">
          <mxGeometry width="50" height="50" relative="1" as="geometry">
            <mxPoint x="190" y="599.6" as="sourcePoint" />
            <mxPoint x="190" y="729.6" as="targetPoint" />
          </mxGeometry>
        </mxCell>
        <mxCell id="2nnpZqraZmaVjeVW0E0M-34" value="" style="endArrow=none;html=1;rounded=0;entryX=1;entryY=0.5;entryDx=0;entryDy=0;exitX=0.003;exitY=0.525;exitDx=0;exitDy=0;exitPerimeter=0;" edge="1" parent="1" source="Ok7dYE3IAMVengFxnzop-6" target="Ok7dYE3IAMVengFxnzop-203">
          <mxGeometry width="50" height="50" relative="1" as="geometry">
            <mxPoint x="220" y="599" as="sourcePoint" />
            <mxPoint x="120" y="600" as="targetPoint" />
          </mxGeometry>
        </mxCell>
        <mxCell id="2nnpZqraZmaVjeVW0E0M-33" value="" style="rounded=0;whiteSpace=wrap;html=1;fillColor=#d5e8d4;strokeColor=#82b366;" vertex="1" parent="1">
          <mxGeometry x="135" y="567.6" width="65" height="59.8" as="geometry" />
        </mxCell>
        <mxCell id="Ok7dYE3IAMVengFxnzop-190" value="" style="endArrow=none;html=1;rounded=0;entryX=0.5;entryY=0;entryDx=0;entryDy=0;exitX=0.481;exitY=1.002;exitDx=0;exitDy=0;exitPerimeter=0;" parent="1" source="Ok7dYE3IAMVengFxnzop-6" target="Ok7dYE3IAMVengFxnzop-1" edge="1">
          <mxGeometry width="50" height="50" relative="1" as="geometry">
            <mxPoint x="356" y="734.8" as="sourcePoint" />
            <mxPoint x="235" y="734.8" as="targetPoint" />
          </mxGeometry>
        </mxCell>
        <mxCell id="2nnpZqraZmaVjeVW0E0M-31" value="" style="rounded=0;whiteSpace=wrap;html=1;fillColor=#d5e8d4;strokeColor=#82b366;align=left;" vertex="1" parent="1">
          <mxGeometry x="220" y="660" width="130" height="74.6" as="geometry" />
        </mxCell>
        <mxCell id="Ok7dYE3IAMVengFxnzop-1" value="&lt;font size=&quot;1&quot; style=&quot;&quot;&gt;&lt;span style=&quot;font-size: 15px;&quot;&gt;&lt;b&gt;Funcionario&lt;/b&gt;&lt;/span&gt;&lt;/font&gt;" style="rounded=0;whiteSpace=wrap;html=1;" parent="1" vertex="1">
          <mxGeometry x="210" y="760" width="135" height="75" as="geometry" />
        </mxCell>
        <mxCell id="Ok7dYE3IAMVengFxnzop-2" value="&lt;b&gt;Hotel&lt;/b&gt;" style="rounded=0;whiteSpace=wrap;html=1;" parent="1" vertex="1">
          <mxGeometry x="466.25" y="760" width="135" height="70" as="geometry" />
        </mxCell>
        <mxCell id="Ok7dYE3IAMVengFxnzop-3" value="Quarto" style="rounded=0;whiteSpace=wrap;html=1;" parent="1" vertex="1">
          <mxGeometry x="410" y="560" width="171.73" height="70" as="geometry" />
        </mxCell>
        <mxCell id="Ok7dYE3IAMVengFxnzop-4" value="Hóspede" style="rounded=0;whiteSpace=wrap;html=1;" parent="1" vertex="1">
          <mxGeometry x="313.75" y="380" width="122" height="65" as="geometry" />
        </mxCell>
        <mxCell id="Ok7dYE3IAMVengFxnzop-6" value="Reserva" style="rounded=0;whiteSpace=wrap;html=1;" parent="1" vertex="1">
          <mxGeometry x="220" y="565" width="120" height="65" as="geometry" />
        </mxCell>
        <mxCell id="Ok7dYE3IAMVengFxnzop-7" value="Pagamento" style="rounded=0;whiteSpace=wrap;html=1;" parent="1" vertex="1">
          <mxGeometry y="564.6" width="120" height="70" as="geometry" />
        </mxCell>
        <mxCell id="Ok7dYE3IAMVengFxnzop-28" value="" style="ellipse;whiteSpace=wrap;html=1;" parent="1" vertex="1">
          <mxGeometry x="230" y="940" width="10" height="10" as="geometry" />
        </mxCell>
        <mxCell id="Ok7dYE3IAMVengFxnzop-32" value="Nome" style="text;html=1;align=center;verticalAlign=middle;resizable=0;points=[];autosize=1;strokeColor=none;fillColor=none;" parent="1" vertex="1">
          <mxGeometry x="278.75" y="830.4" width="60" height="30" as="geometry" />
        </mxCell>
        <mxCell id="Ok7dYE3IAMVengFxnzop-33" value="CPF" style="text;html=1;align=center;verticalAlign=middle;resizable=0;points=[];autosize=1;strokeColor=none;fillColor=none;" parent="1" vertex="1">
          <mxGeometry x="270" y="850" width="50" height="30" as="geometry" />
        </mxCell>
        <mxCell id="Ok7dYE3IAMVengFxnzop-34" value="Telefone" style="text;html=1;align=center;verticalAlign=middle;resizable=0;points=[];autosize=1;strokeColor=none;fillColor=none;" parent="1" vertex="1">
          <mxGeometry x="260" y="870" width="70" height="30" as="geometry" />
        </mxCell>
        <mxCell id="Ok7dYE3IAMVengFxnzop-35" value="&lt;span style=&quot;font-weight: normal;&quot;&gt;E-mail&lt;/span&gt;" style="text;html=1;align=center;verticalAlign=middle;resizable=0;points=[];autosize=1;strokeColor=none;fillColor=none;fontStyle=1" parent="1" vertex="1">
          <mxGeometry x="250" y="890" width="60" height="30" as="geometry" />
        </mxCell>
        <mxCell id="Ok7dYE3IAMVengFxnzop-40" value="&lt;span style=&quot;font-weight: normal;&quot;&gt;Login&lt;/span&gt;" style="text;html=1;align=center;verticalAlign=middle;resizable=0;points=[];autosize=1;strokeColor=none;fillColor=none;fontStyle=1" parent="1" vertex="1">
          <mxGeometry x="245" y="910" width="50" height="30" as="geometry" />
        </mxCell>
        <mxCell id="Ok7dYE3IAMVengFxnzop-41" value="&lt;span style=&quot;font-weight: normal;&quot;&gt;Senha:&lt;/span&gt;" style="text;html=1;align=center;verticalAlign=middle;resizable=0;points=[];autosize=1;strokeColor=none;fillColor=none;fontStyle=1" parent="1" vertex="1">
          <mxGeometry x="235" y="930" width="60" height="30" as="geometry" />
        </mxCell>
        <mxCell id="Ok7dYE3IAMVengFxnzop-43" value="" style="endArrow=none;html=1;rounded=0;" parent="1" edge="1">
          <mxGeometry width="50" height="50" relative="1" as="geometry">
            <mxPoint x="235" y="940" as="sourcePoint" />
            <mxPoint x="234.95" y="835" as="targetPoint" />
          </mxGeometry>
        </mxCell>
        <mxCell id="Ok7dYE3IAMVengFxnzop-45" value="" style="ellipse;whiteSpace=wrap;html=1;" parent="1" vertex="1">
          <mxGeometry x="240" y="920" width="10" height="10" as="geometry" />
        </mxCell>
        <mxCell id="Ok7dYE3IAMVengFxnzop-46" value="" style="endArrow=none;html=1;rounded=0;" parent="1" edge="1">
          <mxGeometry width="50" height="50" relative="1" as="geometry">
            <mxPoint x="244.95" y="920" as="sourcePoint" />
            <mxPoint x="244.95" y="835" as="targetPoint" />
          </mxGeometry>
        </mxCell>
        <mxCell id="Ok7dYE3IAMVengFxnzop-47" value="" style="endArrow=none;html=1;rounded=0;" parent="1" edge="1">
          <mxGeometry width="50" height="50" relative="1" as="geometry">
            <mxPoint x="255" y="900" as="sourcePoint" />
            <mxPoint x="254.95" y="835" as="targetPoint" />
          </mxGeometry>
        </mxCell>
        <mxCell id="Ok7dYE3IAMVengFxnzop-48" value="" style="ellipse;whiteSpace=wrap;html=1;" parent="1" vertex="1">
          <mxGeometry x="250" y="900" width="10" height="10" as="geometry" />
        </mxCell>
        <mxCell id="Ok7dYE3IAMVengFxnzop-49" value="" style="endArrow=none;html=1;rounded=0;exitX=0.5;exitY=0;exitDx=0;exitDy=0;entryX=0.261;entryY=1.01;entryDx=0;entryDy=0;entryPerimeter=0;" parent="1" source="Ok7dYE3IAMVengFxnzop-50" edge="1">
          <mxGeometry width="50" height="50" relative="1" as="geometry">
            <mxPoint x="270" y="890" as="sourcePoint" />
            <mxPoint x="265.235" y="835.75" as="targetPoint" />
          </mxGeometry>
        </mxCell>
        <mxCell id="Ok7dYE3IAMVengFxnzop-50" value="" style="ellipse;whiteSpace=wrap;html=1;" parent="1" vertex="1">
          <mxGeometry x="260" y="880" width="10" height="10" as="geometry" />
        </mxCell>
        <mxCell id="Ok7dYE3IAMVengFxnzop-51" value="" style="endArrow=none;html=1;rounded=0;exitX=0.5;exitY=0;exitDx=0;exitDy=0;" parent="1" source="Ok7dYE3IAMVengFxnzop-52" edge="1">
          <mxGeometry width="50" height="50" relative="1" as="geometry">
            <mxPoint x="280" y="870" as="sourcePoint" />
            <mxPoint x="275" y="836" as="targetPoint" />
          </mxGeometry>
        </mxCell>
        <mxCell id="Ok7dYE3IAMVengFxnzop-52" value="" style="ellipse;whiteSpace=wrap;html=1;" parent="1" vertex="1">
          <mxGeometry x="270" y="860" width="10" height="10" as="geometry" />
        </mxCell>
        <mxCell id="Ok7dYE3IAMVengFxnzop-53" value="" style="endArrow=none;html=1;rounded=0;entryX=0.407;entryY=1.001;entryDx=0;entryDy=0;entryPerimeter=0;" parent="1" edge="1">
          <mxGeometry width="50" height="50" relative="1" as="geometry">
            <mxPoint x="285" y="840" as="sourcePoint" />
            <mxPoint x="284.94500000000005" y="835.075" as="targetPoint" />
          </mxGeometry>
        </mxCell>
        <mxCell id="Ok7dYE3IAMVengFxnzop-54" value="" style="ellipse;whiteSpace=wrap;html=1;" parent="1" vertex="1">
          <mxGeometry x="280" y="840.4" width="10" height="10" as="geometry" />
        </mxCell>
        <mxCell id="Ok7dYE3IAMVengFxnzop-57" value="" style="ellipse;whiteSpace=wrap;html=1;" parent="1" vertex="1">
          <mxGeometry x="463.75" y="935" width="10" height="10" as="geometry" />
        </mxCell>
        <mxCell id="Ok7dYE3IAMVengFxnzop-58" value="&lt;span style=&quot;font-weight: normal;&quot;&gt;ID_Hotel (PK)&lt;/span&gt;" style="text;html=1;align=center;verticalAlign=middle;resizable=0;points=[];autosize=1;strokeColor=none;fillColor=none;fontStyle=1" parent="1" vertex="1">
          <mxGeometry x="463.75" y="925" width="100" height="30" as="geometry" />
        </mxCell>
        <mxCell id="Ok7dYE3IAMVengFxnzop-59" value="" style="endArrow=none;html=1;rounded=0;" parent="1" edge="1">
          <mxGeometry width="50" height="50" relative="1" as="geometry">
            <mxPoint x="468.75" y="935" as="sourcePoint" />
            <mxPoint x="468.7" y="830" as="targetPoint" />
          </mxGeometry>
        </mxCell>
        <mxCell id="Ok7dYE3IAMVengFxnzop-63" value="&lt;span style=&quot;font-weight: 400;&quot;&gt;Nome&lt;/span&gt;" style="text;html=1;align=center;verticalAlign=middle;resizable=0;points=[];autosize=1;strokeColor=none;fillColor=none;fontStyle=1" parent="1" vertex="1">
          <mxGeometry x="471.25" y="910.4" width="60" height="30" as="geometry" />
        </mxCell>
        <mxCell id="Ok7dYE3IAMVengFxnzop-64" value="" style="endArrow=none;html=1;rounded=0;exitX=0.459;exitY=-0.069;exitDx=0;exitDy=0;exitPerimeter=0;" parent="1" source="Ok7dYE3IAMVengFxnzop-62" edge="1">
          <mxGeometry width="50" height="50" relative="1" as="geometry">
            <mxPoint x="478.8" y="935" as="sourcePoint" />
            <mxPoint x="478.75" y="830" as="targetPoint" />
          </mxGeometry>
        </mxCell>
        <mxCell id="Ok7dYE3IAMVengFxnzop-62" value="" style="ellipse;whiteSpace=wrap;html=1;" parent="1" vertex="1">
          <mxGeometry x="473.75" y="920.4" width="10" height="10" as="geometry" />
        </mxCell>
        <mxCell id="Ok7dYE3IAMVengFxnzop-84" value="" style="ellipse;whiteSpace=wrap;html=1;" parent="1" vertex="1">
          <mxGeometry x="483.75" y="900.4" width="10" height="10" as="geometry" />
        </mxCell>
        <mxCell id="Ok7dYE3IAMVengFxnzop-86" value="" style="endArrow=none;html=1;rounded=0;entryX=0.154;entryY=1.013;entryDx=0;entryDy=0;entryPerimeter=0;exitX=0.5;exitY=0;exitDx=0;exitDy=0;" parent="1" source="Ok7dYE3IAMVengFxnzop-84" edge="1">
          <mxGeometry width="50" height="50" relative="1" as="geometry">
            <mxPoint x="491.25" y="900" as="sourcePoint" />
            <mxPoint x="488.62" y="830" as="targetPoint" />
          </mxGeometry>
        </mxCell>
        <mxCell id="Ok7dYE3IAMVengFxnzop-87" value="&lt;span style=&quot;font-weight: 400;&quot;&gt;Categoria&lt;/span&gt;" style="text;html=1;align=center;verticalAlign=middle;resizable=0;points=[];autosize=1;strokeColor=none;fillColor=none;fontStyle=1" parent="1" vertex="1">
          <mxGeometry x="481.25" y="890.4" width="80" height="30" as="geometry" />
        </mxCell>
        <mxCell id="Ok7dYE3IAMVengFxnzop-89" value="" style="endArrow=none;html=1;rounded=0;entryX=0.154;entryY=1.013;entryDx=0;entryDy=0;entryPerimeter=0;exitX=0.5;exitY=0;exitDx=0;exitDy=0;" parent="1" source="Ok7dYE3IAMVengFxnzop-90" edge="1">
          <mxGeometry width="50" height="50" relative="1" as="geometry">
            <mxPoint x="501.25" y="890" as="sourcePoint" />
            <mxPoint x="498.63" y="830" as="targetPoint" />
          </mxGeometry>
        </mxCell>
        <mxCell id="Ok7dYE3IAMVengFxnzop-90" value="" style="ellipse;whiteSpace=wrap;html=1;" parent="1" vertex="1">
          <mxGeometry x="493.75" y="880.4" width="10" height="10" as="geometry" />
        </mxCell>
        <mxCell id="Ok7dYE3IAMVengFxnzop-91" value="" style="endArrow=none;html=1;rounded=0;entryX=0.317;entryY=1.003;entryDx=0;entryDy=0;entryPerimeter=0;exitX=0.5;exitY=0;exitDx=0;exitDy=0;" parent="1" source="Ok7dYE3IAMVengFxnzop-92" target="Ok7dYE3IAMVengFxnzop-2" edge="1">
          <mxGeometry width="50" height="50" relative="1" as="geometry">
            <mxPoint x="511.25" y="870" as="sourcePoint" />
            <mxPoint x="508.63" y="810" as="targetPoint" />
          </mxGeometry>
        </mxCell>
        <mxCell id="Ok7dYE3IAMVengFxnzop-92" value="" style="ellipse;whiteSpace=wrap;html=1;" parent="1" vertex="1">
          <mxGeometry x="503.75" y="860.4" width="10" height="10" as="geometry" />
        </mxCell>
        <mxCell id="Ok7dYE3IAMVengFxnzop-93" value="" style="endArrow=none;html=1;rounded=0;entryX=0.408;entryY=1.013;entryDx=0;entryDy=0;entryPerimeter=0;exitX=0.5;exitY=0;exitDx=0;exitDy=0;" parent="1" source="Ok7dYE3IAMVengFxnzop-94" target="Ok7dYE3IAMVengFxnzop-2" edge="1">
          <mxGeometry width="50" height="50" relative="1" as="geometry">
            <mxPoint x="523.75" y="855" as="sourcePoint" />
            <mxPoint x="521.13" y="795" as="targetPoint" />
          </mxGeometry>
        </mxCell>
        <mxCell id="Ok7dYE3IAMVengFxnzop-94" value="" style="ellipse;whiteSpace=wrap;html=1;" parent="1" vertex="1">
          <mxGeometry x="516.25" y="840" width="10" height="10" as="geometry" />
        </mxCell>
        <mxCell id="Ok7dYE3IAMVengFxnzop-95" value="&lt;span style=&quot;font-weight: normal;&quot;&gt;Telefone&lt;/span&gt;" style="text;html=1;align=center;verticalAlign=middle;resizable=0;points=[];autosize=1;strokeColor=none;fillColor=none;fontStyle=1" parent="1" vertex="1">
          <mxGeometry x="493.75" y="870.4" width="70" height="30" as="geometry" />
        </mxCell>
        <mxCell id="Ok7dYE3IAMVengFxnzop-96" value="&lt;span style=&quot;font-weight: normal;&quot;&gt;E-mail&lt;/span&gt;" style="text;html=1;align=center;verticalAlign=middle;resizable=0;points=[];autosize=1;strokeColor=none;fillColor=none;fontStyle=1" parent="1" vertex="1">
          <mxGeometry x="503.75" y="850.4" width="60" height="30" as="geometry" />
        </mxCell>
        <mxCell id="Ok7dYE3IAMVengFxnzop-97" value="&lt;span style=&quot;font-weight: normal;&quot;&gt;ID_Endereço (FK)&lt;/span&gt;" style="text;html=1;align=center;verticalAlign=middle;resizable=0;points=[];autosize=1;strokeColor=none;fillColor=none;fontStyle=1" parent="1" vertex="1">
          <mxGeometry x="516.25" y="830" width="120" height="30" as="geometry" />
        </mxCell>
        <mxCell id="Ok7dYE3IAMVengFxnzop-98" value="Endereço" style="rounded=0;whiteSpace=wrap;html=1;" parent="1" vertex="1">
          <mxGeometry x="690" y="654.6" width="135" height="70" as="geometry" />
        </mxCell>
        <mxCell id="Ok7dYE3IAMVengFxnzop-100" value="" style="endArrow=none;html=1;rounded=0;entryX=0.5;entryY=1;entryDx=0;entryDy=0;" parent="1" target="Ok7dYE3IAMVengFxnzop-101" edge="1">
          <mxGeometry width="50" height="50" relative="1" as="geometry">
            <mxPoint x="692.55" y="654.6" as="sourcePoint" />
            <mxPoint x="692.5" y="549.6" as="targetPoint" />
          </mxGeometry>
        </mxCell>
        <mxCell id="Ok7dYE3IAMVengFxnzop-101" value="" style="ellipse;whiteSpace=wrap;html=1;" parent="1" vertex="1">
          <mxGeometry x="687.5" y="494.6" width="10" height="10" as="geometry" />
        </mxCell>
        <mxCell id="Ok7dYE3IAMVengFxnzop-102" value="" style="ellipse;whiteSpace=wrap;html=1;" parent="1" vertex="1">
          <mxGeometry x="697.5" y="514.6" width="10" height="10" as="geometry" />
        </mxCell>
        <mxCell id="Ok7dYE3IAMVengFxnzop-103" value="" style="ellipse;whiteSpace=wrap;html=1;" parent="1" vertex="1">
          <mxGeometry x="707.5" y="534.6" width="10" height="10" as="geometry" />
        </mxCell>
        <mxCell id="Ok7dYE3IAMVengFxnzop-104" value="" style="ellipse;whiteSpace=wrap;html=1;" parent="1" vertex="1">
          <mxGeometry x="717.5" y="554.6" width="10" height="10" as="geometry" />
        </mxCell>
        <mxCell id="Ok7dYE3IAMVengFxnzop-108" value="" style="endArrow=none;html=1;rounded=0;entryX=0.5;entryY=1;entryDx=0;entryDy=0;" parent="1" target="Ok7dYE3IAMVengFxnzop-102" edge="1">
          <mxGeometry width="50" height="50" relative="1" as="geometry">
            <mxPoint x="702.5" y="653.6" as="sourcePoint" />
            <mxPoint x="699.9" y="554.6" as="targetPoint" />
          </mxGeometry>
        </mxCell>
        <mxCell id="Ok7dYE3IAMVengFxnzop-109" value="" style="endArrow=none;html=1;rounded=0;entryX=0.5;entryY=1;entryDx=0;entryDy=0;" parent="1" target="Ok7dYE3IAMVengFxnzop-103" edge="1">
          <mxGeometry width="50" height="50" relative="1" as="geometry">
            <mxPoint x="712.5" y="654.6" as="sourcePoint" />
            <mxPoint x="712.5" y="594.6" as="targetPoint" />
          </mxGeometry>
        </mxCell>
        <mxCell id="Ok7dYE3IAMVengFxnzop-110" value="" style="endArrow=none;html=1;rounded=0;entryX=0.535;entryY=1.101;entryDx=0;entryDy=0;entryPerimeter=0;" parent="1" target="Ok7dYE3IAMVengFxnzop-104" edge="1">
          <mxGeometry width="50" height="50" relative="1" as="geometry">
            <mxPoint x="722.5" y="654.6" as="sourcePoint" />
            <mxPoint x="722.5" y="614.6" as="targetPoint" />
          </mxGeometry>
        </mxCell>
        <mxCell id="Ok7dYE3IAMVengFxnzop-114" value="" style="endArrow=none;html=1;rounded=0;" parent="1" target="Ok7dYE3IAMVengFxnzop-105" edge="1">
          <mxGeometry width="50" height="50" relative="1" as="geometry">
            <mxPoint x="732.5" y="654.6" as="sourcePoint" />
            <mxPoint x="732.5" y="594.6" as="targetPoint" />
          </mxGeometry>
        </mxCell>
        <mxCell id="Ok7dYE3IAMVengFxnzop-105" value="" style="ellipse;whiteSpace=wrap;html=1;" parent="1" vertex="1">
          <mxGeometry x="727.5" y="574.6" width="10" height="10" as="geometry" />
        </mxCell>
        <mxCell id="Ok7dYE3IAMVengFxnzop-115" value="" style="endArrow=none;html=1;rounded=0;entryX=0.5;entryY=1;entryDx=0;entryDy=0;" parent="1" target="Ok7dYE3IAMVengFxnzop-106" edge="1">
          <mxGeometry width="50" height="50" relative="1" as="geometry">
            <mxPoint x="742.5" y="654.6" as="sourcePoint" />
            <mxPoint x="742.5" y="604.6" as="targetPoint" />
          </mxGeometry>
        </mxCell>
        <mxCell id="Ok7dYE3IAMVengFxnzop-106" value="" style="ellipse;whiteSpace=wrap;html=1;" parent="1" vertex="1">
          <mxGeometry x="737.5" y="594.6" width="10" height="10" as="geometry" />
        </mxCell>
        <mxCell id="Ok7dYE3IAMVengFxnzop-116" value="" style="endArrow=none;html=1;rounded=0;entryX=0.5;entryY=1;entryDx=0;entryDy=0;" parent="1" target="Ok7dYE3IAMVengFxnzop-107" edge="1">
          <mxGeometry width="50" height="50" relative="1" as="geometry">
            <mxPoint x="752.5" y="654.6" as="sourcePoint" />
            <mxPoint x="752.5" y="614.6" as="targetPoint" />
          </mxGeometry>
        </mxCell>
        <mxCell id="Ok7dYE3IAMVengFxnzop-107" value="" style="ellipse;whiteSpace=wrap;html=1;" parent="1" vertex="1">
          <mxGeometry x="747.5" y="614.6" width="10" height="10" as="geometry" />
        </mxCell>
        <mxCell id="Ok7dYE3IAMVengFxnzop-117" value="&lt;span style=&quot;font-weight: normal;&quot;&gt;ID_Endereço (PK)&lt;/span&gt;" style="text;html=1;align=center;verticalAlign=middle;resizable=0;points=[];autosize=1;strokeColor=none;fillColor=none;fontStyle=1" parent="1" vertex="1">
          <mxGeometry x="687.5" y="484.6" width="120" height="30" as="geometry" />
        </mxCell>
        <mxCell id="Ok7dYE3IAMVengFxnzop-119" value="&lt;span style=&quot;font-weight: normal;&quot;&gt;Rua&lt;/span&gt;" style="text;html=1;align=center;verticalAlign=middle;resizable=0;points=[];autosize=1;strokeColor=none;fillColor=none;fontStyle=1" parent="1" vertex="1">
          <mxGeometry x="697.5" y="504.6" width="50" height="30" as="geometry" />
        </mxCell>
        <mxCell id="Ok7dYE3IAMVengFxnzop-120" value="&lt;span style=&quot;font-weight: normal;&quot;&gt;Número&lt;/span&gt;" style="text;html=1;align=center;verticalAlign=middle;resizable=0;points=[];autosize=1;strokeColor=none;fillColor=none;fontStyle=1" parent="1" vertex="1">
          <mxGeometry x="707.5" y="524.6" width="70" height="30" as="geometry" />
        </mxCell>
        <mxCell id="Ok7dYE3IAMVengFxnzop-121" value="&lt;span style=&quot;font-weight: normal;&quot;&gt;Complemento&lt;/span&gt;" style="text;html=1;align=center;verticalAlign=middle;resizable=0;points=[];autosize=1;strokeColor=none;fillColor=none;fontStyle=1" parent="1" vertex="1">
          <mxGeometry x="717.5" y="544.6" width="100" height="30" as="geometry" />
        </mxCell>
        <mxCell id="Ok7dYE3IAMVengFxnzop-122" value="&lt;span style=&quot;font-weight: normal;&quot;&gt;Bairro&lt;/span&gt;" style="text;html=1;align=center;verticalAlign=middle;resizable=0;points=[];autosize=1;strokeColor=none;fillColor=none;fontStyle=1" parent="1" vertex="1">
          <mxGeometry x="727.5" y="564.6" width="60" height="30" as="geometry" />
        </mxCell>
        <mxCell id="Ok7dYE3IAMVengFxnzop-123" value="&lt;span style=&quot;font-weight: normal;&quot;&gt;CEP&lt;/span&gt;" style="text;html=1;align=center;verticalAlign=middle;resizable=0;points=[];autosize=1;strokeColor=none;fillColor=none;fontStyle=1" parent="1" vertex="1">
          <mxGeometry x="737.5" y="584.6" width="50" height="30" as="geometry" />
        </mxCell>
        <mxCell id="Ok7dYE3IAMVengFxnzop-124" value="&lt;span style=&quot;font-weight: normal;&quot;&gt;Cidade&lt;/span&gt;" style="text;html=1;align=center;verticalAlign=middle;resizable=0;points=[];autosize=1;strokeColor=none;fillColor=none;fontStyle=1" parent="1" vertex="1">
          <mxGeometry x="747.5" y="604.6" width="60" height="30" as="geometry" />
        </mxCell>
        <mxCell id="Ok7dYE3IAMVengFxnzop-126" value="" style="endArrow=none;html=1;rounded=0;entryX=0.5;entryY=1;entryDx=0;entryDy=0;exitX=0.035;exitY=1.001;exitDx=0;exitDy=0;exitPerimeter=0;" parent="1" target="Ok7dYE3IAMVengFxnzop-127" edge="1">
          <mxGeometry width="50" height="50" relative="1" as="geometry">
            <mxPoint x="420.345" y="629.6700000000001" as="sourcePoint" />
            <mxPoint x="594.45" y="724.41" as="targetPoint" />
          </mxGeometry>
        </mxCell>
        <mxCell id="Ok7dYE3IAMVengFxnzop-127" value="" style="ellipse;whiteSpace=wrap;html=1;" parent="1" vertex="1">
          <mxGeometry x="415.48" y="720" width="10" height="10" as="geometry" />
        </mxCell>
        <mxCell id="Ok7dYE3IAMVengFxnzop-128" value="" style="endArrow=none;html=1;rounded=0;entryX=0.5;entryY=1;entryDx=0;entryDy=0;exitX=0.109;exitY=1;exitDx=0;exitDy=0;exitPerimeter=0;" parent="1" target="Ok7dYE3IAMVengFxnzop-129" edge="1">
          <mxGeometry width="50" height="50" relative="1" as="geometry">
            <mxPoint x="430.631" y="629.6" as="sourcePoint" />
            <mxPoint x="604.45" y="734.41" as="targetPoint" />
          </mxGeometry>
        </mxCell>
        <mxCell id="Ok7dYE3IAMVengFxnzop-129" value="" style="ellipse;whiteSpace=wrap;html=1;" parent="1" vertex="1">
          <mxGeometry x="425.48" y="700" width="10" height="10" as="geometry" />
        </mxCell>
        <mxCell id="Ok7dYE3IAMVengFxnzop-130" value="" style="endArrow=none;html=1;rounded=0;entryX=0.5;entryY=1;entryDx=0;entryDy=0;exitX=0.177;exitY=1.009;exitDx=0;exitDy=0;exitPerimeter=0;" parent="1" target="Ok7dYE3IAMVengFxnzop-131" edge="1">
          <mxGeometry width="50" height="50" relative="1" as="geometry">
            <mxPoint x="440.08299999999997" y="630.2300000000001" as="sourcePoint" />
            <mxPoint x="614.45" y="744.41" as="targetPoint" />
          </mxGeometry>
        </mxCell>
        <mxCell id="Ok7dYE3IAMVengFxnzop-131" value="" style="ellipse;whiteSpace=wrap;html=1;" parent="1" vertex="1">
          <mxGeometry x="435.48" y="680" width="10" height="10" as="geometry" />
        </mxCell>
        <mxCell id="Ok7dYE3IAMVengFxnzop-132" value="" style="endArrow=none;html=1;rounded=0;entryX=0.5;entryY=1;entryDx=0;entryDy=0;exitX=0.25;exitY=1;exitDx=0;exitDy=0;" parent="1" target="Ok7dYE3IAMVengFxnzop-133" edge="1">
          <mxGeometry width="50" height="50" relative="1" as="geometry">
            <mxPoint x="450.23" y="629.6" as="sourcePoint" />
            <mxPoint x="624.45" y="754.41" as="targetPoint" />
          </mxGeometry>
        </mxCell>
        <mxCell id="Ok7dYE3IAMVengFxnzop-133" value="" style="ellipse;whiteSpace=wrap;html=1;" parent="1" vertex="1">
          <mxGeometry x="445.48" y="660" width="10" height="10" as="geometry" />
        </mxCell>
        <mxCell id="Ok7dYE3IAMVengFxnzop-134" value="ID_Quarto (PK)" style="text;html=1;align=center;verticalAlign=middle;resizable=0;points=[];autosize=1;strokeColor=none;fillColor=none;" parent="1" vertex="1">
          <mxGeometry x="415" y="710" width="110" height="30" as="geometry" />
        </mxCell>
        <mxCell id="Ok7dYE3IAMVengFxnzop-135" value="Número leito" style="text;html=1;align=center;verticalAlign=middle;resizable=0;points=[];autosize=1;strokeColor=none;fillColor=none;" parent="1" vertex="1">
          <mxGeometry x="425.48" y="690" width="90" height="30" as="geometry" />
        </mxCell>
        <mxCell id="Ok7dYE3IAMVengFxnzop-136" value="Preço diária" style="text;html=1;align=center;verticalAlign=middle;resizable=0;points=[];autosize=1;strokeColor=none;fillColor=none;" parent="1" vertex="1">
          <mxGeometry x="435.48" y="670" width="90" height="30" as="geometry" />
        </mxCell>
        <mxCell id="Ok7dYE3IAMVengFxnzop-137" value="Status" style="text;html=1;align=center;verticalAlign=middle;resizable=0;points=[];autosize=1;strokeColor=none;fillColor=none;" parent="1" vertex="1">
          <mxGeometry x="445.48" y="650" width="60" height="30" as="geometry" />
        </mxCell>
        <mxCell id="Ok7dYE3IAMVengFxnzop-138" value="" style="endArrow=none;html=1;rounded=0;entryX=0.5;entryY=1;entryDx=0;entryDy=0;exitX=0.034;exitY=0.004;exitDx=0;exitDy=0;exitPerimeter=0;" parent="1" source="Ok7dYE3IAMVengFxnzop-4" target="Ok7dYE3IAMVengFxnzop-139" edge="1">
          <mxGeometry width="50" height="50" relative="1" as="geometry">
            <mxPoint x="318.75" y="270" as="sourcePoint" />
            <mxPoint x="492.72" y="364.80999999999995" as="targetPoint" />
          </mxGeometry>
        </mxCell>
        <mxCell id="Ok7dYE3IAMVengFxnzop-139" value="" style="ellipse;whiteSpace=wrap;html=1;" parent="1" vertex="1">
          <mxGeometry x="313.75" y="269.99999999999994" width="10" height="10" as="geometry" />
        </mxCell>
        <mxCell id="Ok7dYE3IAMVengFxnzop-140" value="" style="endArrow=none;html=1;rounded=0;entryX=0.5;entryY=1;entryDx=0;entryDy=0;exitX=0.117;exitY=0.001;exitDx=0;exitDy=0;exitPerimeter=0;" parent="1" source="Ok7dYE3IAMVengFxnzop-4" target="Ok7dYE3IAMVengFxnzop-141" edge="1">
          <mxGeometry width="50" height="50" relative="1" as="geometry">
            <mxPoint x="327.75" y="390" as="sourcePoint" />
            <mxPoint x="502.72" y="374.80999999999995" as="targetPoint" />
          </mxGeometry>
        </mxCell>
        <mxCell id="Ok7dYE3IAMVengFxnzop-141" value="" style="ellipse;whiteSpace=wrap;html=1;" parent="1" vertex="1">
          <mxGeometry x="323.75" y="289.99999999999994" width="10" height="10" as="geometry" />
        </mxCell>
        <mxCell id="Ok7dYE3IAMVengFxnzop-142" value="" style="endArrow=none;html=1;rounded=0;entryX=0.5;entryY=1;entryDx=0;entryDy=0;exitX=0.197;exitY=-0.001;exitDx=0;exitDy=0;exitPerimeter=0;" parent="1" source="Ok7dYE3IAMVengFxnzop-4" target="Ok7dYE3IAMVengFxnzop-143" edge="1">
          <mxGeometry width="50" height="50" relative="1" as="geometry">
            <mxPoint x="337.75" y="400" as="sourcePoint" />
            <mxPoint x="512.72" y="384.80999999999995" as="targetPoint" />
          </mxGeometry>
        </mxCell>
        <mxCell id="Ok7dYE3IAMVengFxnzop-143" value="" style="ellipse;whiteSpace=wrap;html=1;" parent="1" vertex="1">
          <mxGeometry x="333.75" y="309.99999999999994" width="10" height="10" as="geometry" />
        </mxCell>
        <mxCell id="Ok7dYE3IAMVengFxnzop-144" value="" style="endArrow=none;html=1;rounded=0;entryX=0.5;entryY=1;entryDx=0;entryDy=0;exitX=0.282;exitY=-0.001;exitDx=0;exitDy=0;exitPerimeter=0;" parent="1" source="Ok7dYE3IAMVengFxnzop-4" target="Ok7dYE3IAMVengFxnzop-145" edge="1">
          <mxGeometry width="50" height="50" relative="1" as="geometry">
            <mxPoint x="347.75" y="410" as="sourcePoint" />
            <mxPoint x="522.72" y="394.80999999999995" as="targetPoint" />
          </mxGeometry>
        </mxCell>
        <mxCell id="Ok7dYE3IAMVengFxnzop-145" value="" style="ellipse;whiteSpace=wrap;html=1;" parent="1" vertex="1">
          <mxGeometry x="343.75" y="329.99999999999994" width="10" height="10" as="geometry" />
        </mxCell>
        <mxCell id="Ok7dYE3IAMVengFxnzop-146" value="CPF" style="text;html=1;align=center;verticalAlign=middle;resizable=0;points=[];autosize=1;strokeColor=none;fillColor=none;" parent="1" vertex="1">
          <mxGeometry x="314.75" y="260" width="50" height="30" as="geometry" />
        </mxCell>
        <mxCell id="Ok7dYE3IAMVengFxnzop-147" value="Nome" style="text;html=1;align=center;verticalAlign=middle;resizable=0;points=[];autosize=1;strokeColor=none;fillColor=none;" parent="1" vertex="1">
          <mxGeometry x="323.75" y="280" width="60" height="30" as="geometry" />
        </mxCell>
        <mxCell id="Ok7dYE3IAMVengFxnzop-148" value="E-mail" style="text;html=1;align=center;verticalAlign=middle;resizable=0;points=[];autosize=1;strokeColor=none;fillColor=none;" parent="1" vertex="1">
          <mxGeometry x="333.75" y="300" width="60" height="30" as="geometry" />
        </mxCell>
        <mxCell id="Ok7dYE3IAMVengFxnzop-151" value="" style="ellipse;whiteSpace=wrap;html=1;" parent="1" vertex="1">
          <mxGeometry x="757.5" y="634.6" width="10" height="10" as="geometry" />
        </mxCell>
        <mxCell id="Ok7dYE3IAMVengFxnzop-152" value="" style="endArrow=none;html=1;rounded=0;entryX=0.5;entryY=1;entryDx=0;entryDy=0;" parent="1" edge="1">
          <mxGeometry width="50" height="50" relative="1" as="geometry">
            <mxPoint x="762.5" y="654.6" as="sourcePoint" />
            <mxPoint x="762.4300000000001" y="644.6" as="targetPoint" />
          </mxGeometry>
        </mxCell>
        <mxCell id="Ok7dYE3IAMVengFxnzop-153" value="&lt;span style=&quot;font-weight: normal;&quot;&gt;Estado&lt;/span&gt;" style="text;html=1;align=center;verticalAlign=middle;resizable=0;points=[];autosize=1;strokeColor=none;fillColor=none;fontStyle=1" parent="1" vertex="1">
          <mxGeometry x="757.5" y="624.6" width="60" height="30" as="geometry" />
        </mxCell>
        <mxCell id="Ok7dYE3IAMVengFxnzop-154" value="&lt;span style=&quot;font-weight: normal;&quot;&gt;ID_Endereço (FK)&lt;/span&gt;" style="text;html=1;align=center;verticalAlign=middle;resizable=0;points=[];autosize=1;strokeColor=none;fillColor=none;fontStyle=1" parent="1" vertex="1">
          <mxGeometry x="346.25" y="320" width="120" height="30" as="geometry" />
        </mxCell>
        <mxCell id="Ok7dYE3IAMVengFxnzop-155" value="" style="endArrow=none;html=1;rounded=0;entryX=0.5;entryY=1;entryDx=0;entryDy=0;" parent="1" target="Ok7dYE3IAMVengFxnzop-156" edge="1">
          <mxGeometry width="50" height="50" relative="1" as="geometry">
            <mxPoint x="224" y="565" as="sourcePoint" />
            <mxPoint x="398.97" y="554.81" as="targetPoint" />
          </mxGeometry>
        </mxCell>
        <mxCell id="Ok7dYE3IAMVengFxnzop-156" value="" style="ellipse;whiteSpace=wrap;html=1;" parent="1" vertex="1">
          <mxGeometry x="220" y="460" width="10" height="10" as="geometry" />
        </mxCell>
        <mxCell id="Ok7dYE3IAMVengFxnzop-157" value="" style="endArrow=none;html=1;rounded=0;entryX=0.5;entryY=1;entryDx=0;entryDy=0;exitX=0.116;exitY=0.005;exitDx=0;exitDy=0;exitPerimeter=0;" parent="1" source="Ok7dYE3IAMVengFxnzop-6" target="Ok7dYE3IAMVengFxnzop-158" edge="1">
          <mxGeometry width="50" height="50" relative="1" as="geometry">
            <mxPoint x="234" y="580" as="sourcePoint" />
            <mxPoint x="408.97" y="564.81" as="targetPoint" />
          </mxGeometry>
        </mxCell>
        <mxCell id="Ok7dYE3IAMVengFxnzop-158" value="" style="ellipse;whiteSpace=wrap;html=1;" parent="1" vertex="1">
          <mxGeometry x="230" y="480" width="10" height="10" as="geometry" />
        </mxCell>
        <mxCell id="Ok7dYE3IAMVengFxnzop-159" value="" style="endArrow=none;html=1;rounded=0;entryX=0.5;entryY=1;entryDx=0;entryDy=0;exitX=0.204;exitY=-0.004;exitDx=0;exitDy=0;exitPerimeter=0;" parent="1" source="Ok7dYE3IAMVengFxnzop-6" target="Ok7dYE3IAMVengFxnzop-160" edge="1">
          <mxGeometry width="50" height="50" relative="1" as="geometry">
            <mxPoint x="244" y="590" as="sourcePoint" />
            <mxPoint x="418.97" y="574.81" as="targetPoint" />
          </mxGeometry>
        </mxCell>
        <mxCell id="Ok7dYE3IAMVengFxnzop-160" value="" style="ellipse;whiteSpace=wrap;html=1;" parent="1" vertex="1">
          <mxGeometry x="240" y="500" width="10" height="10" as="geometry" />
        </mxCell>
        <mxCell id="Ok7dYE3IAMVengFxnzop-161" value="" style="endArrow=none;html=1;rounded=0;entryX=0.5;entryY=1;entryDx=0;entryDy=0;exitX=0.288;exitY=0.002;exitDx=0;exitDy=0;exitPerimeter=0;" parent="1" source="Ok7dYE3IAMVengFxnzop-6" target="Ok7dYE3IAMVengFxnzop-162" edge="1">
          <mxGeometry width="50" height="50" relative="1" as="geometry">
            <mxPoint x="254" y="600" as="sourcePoint" />
            <mxPoint x="428.97" y="584.81" as="targetPoint" />
          </mxGeometry>
        </mxCell>
        <mxCell id="Ok7dYE3IAMVengFxnzop-162" value="" style="ellipse;whiteSpace=wrap;html=1;" parent="1" vertex="1">
          <mxGeometry x="250" y="516.82" width="10" height="10" as="geometry" />
        </mxCell>
        <mxCell id="Ok7dYE3IAMVengFxnzop-163" value="ID_Reserva (PK)" style="text;html=1;align=center;verticalAlign=middle;resizable=0;points=[];autosize=1;strokeColor=none;fillColor=none;" parent="1" vertex="1">
          <mxGeometry x="222.5" y="450" width="110" height="30" as="geometry" />
        </mxCell>
        <mxCell id="Ok7dYE3IAMVengFxnzop-164" value="Data Entrada" style="text;html=1;align=center;verticalAlign=middle;resizable=0;points=[];autosize=1;strokeColor=none;fillColor=none;" parent="1" vertex="1">
          <mxGeometry x="235" y="470" width="90" height="30" as="geometry" />
        </mxCell>
        <mxCell id="Ok7dYE3IAMVengFxnzop-165" value="Data Saída" style="text;html=1;align=center;verticalAlign=middle;resizable=0;points=[];autosize=1;strokeColor=none;fillColor=none;" parent="1" vertex="1">
          <mxGeometry x="245" y="490" width="80" height="30" as="geometry" />
        </mxCell>
        <mxCell id="Ok7dYE3IAMVengFxnzop-166" value="Status" style="text;html=1;align=center;verticalAlign=middle;resizable=0;points=[];autosize=1;strokeColor=none;fillColor=none;" parent="1" vertex="1">
          <mxGeometry x="250" y="506.82" width="60" height="30" as="geometry" />
        </mxCell>
        <mxCell id="Ok7dYE3IAMVengFxnzop-167" value="" style="endArrow=none;html=1;rounded=0;exitX=0.035;exitY=1.001;exitDx=0;exitDy=0;exitPerimeter=0;" parent="1" edge="1">
          <mxGeometry width="50" height="50" relative="1" as="geometry">
            <mxPoint x="5" y="634.6" as="sourcePoint" />
            <mxPoint x="5" y="724.6" as="targetPoint" />
          </mxGeometry>
        </mxCell>
        <mxCell id="Ok7dYE3IAMVengFxnzop-168" value="" style="ellipse;whiteSpace=wrap;html=1;" parent="1" vertex="1">
          <mxGeometry y="725" width="10" height="10" as="geometry" />
        </mxCell>
        <mxCell id="Ok7dYE3IAMVengFxnzop-169" value="ID_Pagamento (PK)" style="text;html=1;align=center;verticalAlign=middle;resizable=0;points=[];autosize=1;strokeColor=none;fillColor=none;" parent="1" vertex="1">
          <mxGeometry y="715" width="130" height="30" as="geometry" />
        </mxCell>
        <mxCell id="Ok7dYE3IAMVengFxnzop-175" value="" style="ellipse;whiteSpace=wrap;html=1;" parent="1" vertex="1">
          <mxGeometry x="30" y="675" width="10" height="10" as="geometry" />
        </mxCell>
        <mxCell id="Ok7dYE3IAMVengFxnzop-178" value="" style="endArrow=none;html=1;rounded=0;exitX=0.123;exitY=1.002;exitDx=0;exitDy=0;exitPerimeter=0;" parent="1" source="Ok7dYE3IAMVengFxnzop-7" target="Ok7dYE3IAMVengFxnzop-171" edge="1">
          <mxGeometry width="50" height="50" relative="1" as="geometry">
            <mxPoint x="15" y="644.6" as="sourcePoint" />
            <mxPoint x="15" y="734.6" as="targetPoint" />
          </mxGeometry>
        </mxCell>
        <mxCell id="Ok7dYE3IAMVengFxnzop-171" value="" style="ellipse;whiteSpace=wrap;html=1;" parent="1" vertex="1">
          <mxGeometry x="10" y="709.6" width="10" height="10" as="geometry" />
        </mxCell>
        <mxCell id="Ok7dYE3IAMVengFxnzop-179" value="" style="endArrow=none;html=1;rounded=0;exitX=0.207;exitY=1.001;exitDx=0;exitDy=0;exitPerimeter=0;" parent="1" source="Ok7dYE3IAMVengFxnzop-7" target="Ok7dYE3IAMVengFxnzop-173" edge="1">
          <mxGeometry width="50" height="50" relative="1" as="geometry">
            <mxPoint x="25" y="654.6" as="sourcePoint" />
            <mxPoint x="25" y="744.6" as="targetPoint" />
          </mxGeometry>
        </mxCell>
        <mxCell id="Ok7dYE3IAMVengFxnzop-173" value="" style="ellipse;whiteSpace=wrap;html=1;" parent="1" vertex="1">
          <mxGeometry x="20" y="695" width="10" height="10" as="geometry" />
        </mxCell>
        <mxCell id="Ok7dYE3IAMVengFxnzop-180" value="" style="endArrow=none;html=1;rounded=0;exitX=0.035;exitY=1.001;exitDx=0;exitDy=0;exitPerimeter=0;" parent="1" target="Ok7dYE3IAMVengFxnzop-177" edge="1">
          <mxGeometry width="50" height="50" relative="1" as="geometry">
            <mxPoint x="44.89999999999998" y="634.6" as="sourcePoint" />
            <mxPoint x="44.89999999999998" y="724.6" as="targetPoint" />
          </mxGeometry>
        </mxCell>
        <mxCell id="Ok7dYE3IAMVengFxnzop-177" value="" style="ellipse;whiteSpace=wrap;html=1;" parent="1" vertex="1">
          <mxGeometry x="40" y="655" width="10" height="10" as="geometry" />
        </mxCell>
        <mxCell id="Ok7dYE3IAMVengFxnzop-181" value="" style="endArrow=none;html=1;rounded=0;exitX=0.289;exitY=1.009;exitDx=0;exitDy=0;exitPerimeter=0;" parent="1" source="Ok7dYE3IAMVengFxnzop-7" edge="1">
          <mxGeometry width="50" height="50" relative="1" as="geometry">
            <mxPoint x="34.950000000000045" y="616" as="sourcePoint" />
            <mxPoint x="34.950000000000045" y="675" as="targetPoint" />
          </mxGeometry>
        </mxCell>
        <mxCell id="Ok7dYE3IAMVengFxnzop-182" value="Forma pagamento" style="text;html=1;align=center;verticalAlign=middle;resizable=0;points=[];autosize=1;strokeColor=none;fillColor=none;" parent="1" vertex="1">
          <mxGeometry x="10" y="699.6" width="120" height="30" as="geometry" />
        </mxCell>
        <mxCell id="Ok7dYE3IAMVengFxnzop-183" value="Data Pagamento" style="text;html=1;align=center;verticalAlign=middle;resizable=0;points=[];autosize=1;strokeColor=none;fillColor=none;" parent="1" vertex="1">
          <mxGeometry x="25" y="685" width="110" height="30" as="geometry" />
        </mxCell>
        <mxCell id="Ok7dYE3IAMVengFxnzop-184" value="Valor Total" style="text;html=1;align=center;verticalAlign=middle;resizable=0;points=[];autosize=1;strokeColor=none;fillColor=none;" parent="1" vertex="1">
          <mxGeometry x="30" y="665" width="80" height="30" as="geometry" />
        </mxCell>
        <mxCell id="Ok7dYE3IAMVengFxnzop-185" value="Status" style="text;html=1;align=center;verticalAlign=middle;resizable=0;points=[];autosize=1;strokeColor=none;fillColor=none;" parent="1" vertex="1">
          <mxGeometry x="40" y="644.6" width="60" height="30" as="geometry" />
        </mxCell>
        <mxCell id="Ok7dYE3IAMVengFxnzop-186" value="" style="endArrow=none;html=1;rounded=0;entryX=0.879;entryY=0.999;entryDx=0;entryDy=0;entryPerimeter=0;exitX=0.469;exitY=-0.005;exitDx=0;exitDy=0;exitPerimeter=0;" parent="1" edge="1">
          <mxGeometry width="50" height="50" relative="1" as="geometry">
            <mxPoint x="546.9849999999999" y="759.0600000000001" as="sourcePoint" />
            <mxPoint x="547.30375" y="629.3399999999999" as="targetPoint" />
          </mxGeometry>
        </mxCell>
        <mxCell id="Ok7dYE3IAMVengFxnzop-187" value="Têm" style="rhombus;whiteSpace=wrap;html=1;" parent="1" vertex="1">
          <mxGeometry x="520" y="679.6" width="54.37" height="29.2" as="geometry" />
        </mxCell>
        <mxCell id="Ok7dYE3IAMVengFxnzop-188" value="" style="endArrow=none;html=1;rounded=0;entryX=0.999;entryY=0.464;entryDx=0;entryDy=0;entryPerimeter=0;exitX=0;exitY=0.5;exitDx=0;exitDy=0;" parent="1" source="Ok7dYE3IAMVengFxnzop-2" target="Ok7dYE3IAMVengFxnzop-1" edge="1">
          <mxGeometry width="50" height="50" relative="1" as="geometry">
            <mxPoint x="370" y="900" as="sourcePoint" />
            <mxPoint x="370" y="775" as="targetPoint" />
          </mxGeometry>
        </mxCell>
        <mxCell id="Ok7dYE3IAMVengFxnzop-189" value="&lt;font style=&quot;font-size: 8px;&quot;&gt;Trabalha&lt;/font&gt;" style="rhombus;whiteSpace=wrap;html=1;" parent="1" vertex="1">
          <mxGeometry x="371.40999999999997" y="775.4" width="64.68" height="39.2" as="geometry" />
        </mxCell>
        <mxCell id="Ok7dYE3IAMVengFxnzop-191" value="Pode" style="rhombus;whiteSpace=wrap;html=1;" parent="1" vertex="1">
          <mxGeometry x="240" y="679.6" width="76.71" height="50" as="geometry" />
        </mxCell>
        <mxCell id="Ok7dYE3IAMVengFxnzop-193" value="" style="endArrow=none;html=1;rounded=0;entryX=0.869;entryY=-0.013;entryDx=0;entryDy=0;entryPerimeter=0;exitX=0.698;exitY=0.995;exitDx=0;exitDy=0;exitPerimeter=0;" parent="1" source="Ok7dYE3IAMVengFxnzop-4" edge="1">
          <mxGeometry width="50" height="50" relative="1" as="geometry">
            <mxPoint x="335.2539999999999" y="444.6650000000001" as="sourcePoint" />
            <mxPoint x="330" y="564.595" as="targetPoint" />
          </mxGeometry>
        </mxCell>
        <mxCell id="Ok7dYE3IAMVengFxnzop-196" value="" style="endArrow=none;html=1;rounded=0;exitX=0.987;exitY=0.504;exitDx=0;exitDy=0;entryX=0;entryY=0.539;entryDx=0;entryDy=0;entryPerimeter=0;exitPerimeter=0;" parent="1" source="Ok7dYE3IAMVengFxnzop-197" target="Ok7dYE3IAMVengFxnzop-3" edge="1">
          <mxGeometry width="50" height="50" relative="1" as="geometry">
            <mxPoint x="409.84000000000003" y="597.5" as="sourcePoint" />
            <mxPoint x="411.73" y="630" as="targetPoint" />
          </mxGeometry>
        </mxCell>
        <mxCell id="Ok7dYE3IAMVengFxnzop-198" value="" style="endArrow=none;html=1;rounded=0;exitX=1;exitY=0.5;exitDx=0;exitDy=0;entryX=0;entryY=0.5;entryDx=0;entryDy=0;" parent="1" source="Ok7dYE3IAMVengFxnzop-6" target="Ok7dYE3IAMVengFxnzop-197" edge="1">
          <mxGeometry width="50" height="50" relative="1" as="geometry">
            <mxPoint x="340" y="598" as="sourcePoint" />
            <mxPoint x="384" y="598" as="targetPoint" />
          </mxGeometry>
        </mxCell>
        <mxCell id="Ok7dYE3IAMVengFxnzop-197" value="Tem" style="rhombus;whiteSpace=wrap;html=1;fontSize=10;" parent="1" vertex="1">
          <mxGeometry x="358.19" y="587.5" width="33.11" height="20" as="geometry" />
        </mxCell>
        <mxCell id="Ok7dYE3IAMVengFxnzop-199" value="Pode" style="rhombus;whiteSpace=wrap;html=1;rotation=5;" parent="1" vertex="1">
          <mxGeometry x="343.75" y="490.8" width="40" height="34.2" as="geometry" />
        </mxCell>
        <mxCell id="Ok7dYE3IAMVengFxnzop-204" value="" style="endArrow=none;html=1;rounded=0;entryX=0;entryY=0;entryDx=0;entryDy=0;exitX=1;exitY=0.5;exitDx=0;exitDy=0;" parent="1" source="Ok7dYE3IAMVengFxnzop-4" target="Ok7dYE3IAMVengFxnzop-98" edge="1">
          <mxGeometry width="50" height="50" relative="1" as="geometry">
            <mxPoint x="590" y="390" as="sourcePoint" />
            <mxPoint x="590" y="520" as="targetPoint" />
          </mxGeometry>
        </mxCell>
        <mxCell id="Ok7dYE3IAMVengFxnzop-205" value="" style="endArrow=none;html=1;rounded=0;entryX=1.006;entryY=0.552;entryDx=0;entryDy=0;exitX=0;exitY=0.5;exitDx=0;exitDy=0;entryPerimeter=0;" parent="1" source="Ok7dYE3IAMVengFxnzop-98" target="Ok7dYE3IAMVengFxnzop-2" edge="1">
          <mxGeometry width="50" height="50" relative="1" as="geometry">
            <mxPoint x="636.25" y="705" as="sourcePoint" />
            <mxPoint x="636.25" y="835" as="targetPoint" />
          </mxGeometry>
        </mxCell>
        <mxCell id="Ok7dYE3IAMVengFxnzop-210" value="Tem" style="rhombus;whiteSpace=wrap;html=1;rotation=-50;" parent="1" vertex="1">
          <mxGeometry x="620" y="730.8000000000001" width="54.37" height="29.2" as="geometry" />
        </mxCell>
        <mxCell id="Ok7dYE3IAMVengFxnzop-211" value="Tem" style="rhombus;whiteSpace=wrap;html=1;rotation=47;" parent="1" vertex="1">
          <mxGeometry x="510.07" y="493.02" width="60.62" height="33.8" as="geometry" />
        </mxCell>
        <mxCell id="Ok7dYE3IAMVengFxnzop-214" value="1" style="text;html=1;align=center;verticalAlign=middle;resizable=0;points=[];autosize=1;strokeColor=none;fillColor=none;" parent="1" vertex="1">
          <mxGeometry x="539.37" y="735.4" width="30" height="30" as="geometry" />
        </mxCell>
        <mxCell id="Ok7dYE3IAMVengFxnzop-215" value="N" style="text;html=1;align=center;verticalAlign=middle;resizable=0;points=[];autosize=1;strokeColor=none;fillColor=none;" parent="1" vertex="1">
          <mxGeometry x="539.37" y="627.4" width="30" height="30" as="geometry" />
        </mxCell>
        <mxCell id="Ok7dYE3IAMVengFxnzop-216" value="N" style="text;html=1;align=center;verticalAlign=middle;resizable=0;points=[];autosize=1;strokeColor=none;fillColor=none;" parent="1" vertex="1">
          <mxGeometry x="341.41" y="798" width="30" height="30" as="geometry" />
        </mxCell>
        <mxCell id="Ok7dYE3IAMVengFxnzop-217" value="1" style="text;html=1;align=center;verticalAlign=middle;resizable=0;points=[];autosize=1;strokeColor=none;fillColor=none;" parent="1" vertex="1">
          <mxGeometry x="440.48" y="798" width="30" height="30" as="geometry" />
        </mxCell>
        <mxCell id="Ok7dYE3IAMVengFxnzop-218" value="1" style="text;html=1;align=center;verticalAlign=middle;resizable=0;points=[];autosize=1;strokeColor=none;fillColor=none;" parent="1" vertex="1">
          <mxGeometry x="275" y="730.8" width="30" height="30" as="geometry" />
        </mxCell>
        <mxCell id="Ok7dYE3IAMVengFxnzop-219" value="N" style="text;html=1;align=center;verticalAlign=middle;resizable=0;points=[];autosize=1;strokeColor=none;fillColor=none;" parent="1" vertex="1">
          <mxGeometry x="270" y="628" width="30" height="30" as="geometry" />
        </mxCell>
        <mxCell id="Ok7dYE3IAMVengFxnzop-220" value="1" style="text;html=1;align=center;verticalAlign=middle;resizable=0;points=[];autosize=1;strokeColor=none;fillColor=none;" parent="1" vertex="1">
          <mxGeometry x="335" y="568" width="30" height="30" as="geometry" />
        </mxCell>
        <mxCell id="Ok7dYE3IAMVengFxnzop-221" value="N" style="text;html=1;align=center;verticalAlign=middle;resizable=0;points=[];autosize=1;strokeColor=none;fillColor=none;" parent="1" vertex="1">
          <mxGeometry x="385.48" y="568" width="30" height="30" as="geometry" />
        </mxCell>
        <mxCell id="Ok7dYE3IAMVengFxnzop-222" value="1" style="text;html=1;align=center;verticalAlign=middle;resizable=0;points=[];autosize=1;strokeColor=none;fillColor=none;" parent="1" vertex="1">
          <mxGeometry x="195" y="570" width="30" height="30" as="geometry" />
        </mxCell>
        <mxCell id="Ok7dYE3IAMVengFxnzop-223" value="N" style="text;html=1;align=center;verticalAlign=middle;resizable=0;points=[];autosize=1;strokeColor=none;fillColor=none;" parent="1" vertex="1">
          <mxGeometry x="110" y="570" width="30" height="30" as="geometry" />
        </mxCell>
        <mxCell id="2nnpZqraZmaVjeVW0E0M-1" value="1" style="text;html=1;align=center;verticalAlign=middle;resizable=0;points=[];autosize=1;strokeColor=none;fillColor=none;" vertex="1" parent="1">
          <mxGeometry x="110" y="594.6" width="30" height="30" as="geometry" />
        </mxCell>
        <mxCell id="2nnpZqraZmaVjeVW0E0M-2" value="N" style="text;html=1;align=center;verticalAlign=middle;resizable=0;points=[];autosize=1;strokeColor=none;fillColor=none;" vertex="1" parent="1">
          <mxGeometry x="195" y="594.6" width="30" height="30" as="geometry" />
        </mxCell>
        <mxCell id="2nnpZqraZmaVjeVW0E0M-3" value="1" style="text;html=1;align=center;verticalAlign=middle;resizable=0;points=[];autosize=1;strokeColor=none;fillColor=none;" vertex="1" parent="1">
          <mxGeometry x="245" y="628" width="30" height="30" as="geometry" />
        </mxCell>
        <mxCell id="2nnpZqraZmaVjeVW0E0M-4" value="N" style="text;html=1;align=center;verticalAlign=middle;resizable=0;points=[];autosize=1;strokeColor=none;fillColor=none;" vertex="1" parent="1">
          <mxGeometry x="250" y="730.8" width="30" height="30" as="geometry" />
        </mxCell>
        <mxCell id="2nnpZqraZmaVjeVW0E0M-5" value="1" style="text;html=1;align=center;verticalAlign=middle;resizable=0;points=[];autosize=1;strokeColor=none;fillColor=none;" vertex="1" parent="1">
          <mxGeometry x="335" y="598" width="30" height="30" as="geometry" />
        </mxCell>
        <mxCell id="2nnpZqraZmaVjeVW0E0M-6" value="1" style="text;html=1;align=center;verticalAlign=middle;resizable=0;points=[];autosize=1;strokeColor=none;fillColor=none;" vertex="1" parent="1">
          <mxGeometry x="385" y="598" width="30" height="30" as="geometry" />
        </mxCell>
        <mxCell id="2nnpZqraZmaVjeVW0E0M-7" value="1" style="text;html=1;align=center;verticalAlign=middle;resizable=0;points=[];autosize=1;strokeColor=none;fillColor=none;" vertex="1" parent="1">
          <mxGeometry x="393.75" y="440" width="30" height="30" as="geometry" />
        </mxCell>
        <mxCell id="2nnpZqraZmaVjeVW0E0M-8" value="N" style="text;html=1;align=center;verticalAlign=middle;resizable=0;points=[];autosize=1;strokeColor=none;fillColor=none;" vertex="1" parent="1">
          <mxGeometry x="325" y="544.6" width="30" height="30" as="geometry" />
        </mxCell>
        <mxCell id="2nnpZqraZmaVjeVW0E0M-9" value="1" style="text;html=1;align=center;verticalAlign=middle;resizable=0;points=[];autosize=1;strokeColor=none;fillColor=none;" vertex="1" parent="1">
          <mxGeometry x="311.41" y="544.6" width="30" height="30" as="geometry" />
        </mxCell>
        <mxCell id="2nnpZqraZmaVjeVW0E0M-10" value="1" style="text;html=1;align=center;verticalAlign=middle;resizable=0;points=[];autosize=1;strokeColor=none;fillColor=none;" vertex="1" parent="1">
          <mxGeometry x="365" y="440" width="30" height="30" as="geometry" />
        </mxCell>
        <mxCell id="2nnpZqraZmaVjeVW0E0M-11" value="1" style="text;html=1;align=center;verticalAlign=middle;resizable=0;points=[];autosize=1;strokeColor=none;fillColor=none;" vertex="1" parent="1">
          <mxGeometry x="338.75" y="768" width="30" height="30" as="geometry" />
        </mxCell>
        <mxCell id="2nnpZqraZmaVjeVW0E0M-12" value="1" style="text;html=1;align=center;verticalAlign=middle;resizable=0;points=[];autosize=1;strokeColor=none;fillColor=none;" vertex="1" parent="1">
          <mxGeometry x="441.25" y="768" width="30" height="30" as="geometry" />
        </mxCell>
        <mxCell id="2nnpZqraZmaVjeVW0E0M-13" value="1" style="text;html=1;align=center;verticalAlign=middle;resizable=0;points=[];autosize=1;strokeColor=none;fillColor=none;" vertex="1" parent="1">
          <mxGeometry x="525.38" y="627.4" width="30" height="30" as="geometry" />
        </mxCell>
        <mxCell id="2nnpZqraZmaVjeVW0E0M-14" value="1" style="text;html=1;align=center;verticalAlign=middle;resizable=0;points=[];autosize=1;strokeColor=none;fillColor=none;" vertex="1" parent="1">
          <mxGeometry x="524" y="735" width="30" height="30" as="geometry" />
        </mxCell>
        <mxCell id="2nnpZqraZmaVjeVW0E0M-15" value="1" style="text;html=1;align=center;verticalAlign=middle;resizable=0;points=[];autosize=1;strokeColor=none;fillColor=none;" vertex="1" parent="1">
          <mxGeometry x="595" y="788" width="30" height="30" as="geometry" />
        </mxCell>
        <mxCell id="2nnpZqraZmaVjeVW0E0M-16" value="1" style="text;html=1;align=center;verticalAlign=middle;resizable=0;points=[];autosize=1;strokeColor=none;fillColor=none;" vertex="1" parent="1">
          <mxGeometry x="665" y="698" width="30" height="30" as="geometry" />
        </mxCell>
        <mxCell id="2nnpZqraZmaVjeVW0E0M-17" value="1" style="text;html=1;align=center;verticalAlign=middle;resizable=0;points=[];autosize=1;strokeColor=none;fillColor=none;" vertex="1" parent="1">
          <mxGeometry x="665" y="668" width="30" height="30" as="geometry" />
        </mxCell>
        <mxCell id="2nnpZqraZmaVjeVW0E0M-18" value="1" style="text;html=1;align=center;verticalAlign=middle;resizable=0;points=[];autosize=1;strokeColor=none;fillColor=none;" vertex="1" parent="1">
          <mxGeometry x="595" y="758" width="30" height="30" as="geometry" />
        </mxCell>
        <mxCell id="2nnpZqraZmaVjeVW0E0M-19" value="1" style="text;html=1;align=center;verticalAlign=middle;resizable=0;points=[];autosize=1;strokeColor=none;fillColor=none;" vertex="1" parent="1">
          <mxGeometry x="429.37" y="420" width="30" height="30" as="geometry" />
        </mxCell>
        <mxCell id="2nnpZqraZmaVjeVW0E0M-20" value="1" style="text;html=1;align=center;verticalAlign=middle;resizable=0;points=[];autosize=1;strokeColor=none;fillColor=none;" vertex="1" parent="1">
          <mxGeometry x="665" y="645" width="30" height="30" as="geometry" />
        </mxCell>
        <mxCell id="2nnpZqraZmaVjeVW0E0M-21" value="1" style="text;html=1;align=center;verticalAlign=middle;resizable=0;points=[];autosize=1;strokeColor=none;fillColor=none;" vertex="1" parent="1">
          <mxGeometry x="667.5" y="619.6" width="30" height="30" as="geometry" />
        </mxCell>
        <mxCell id="2nnpZqraZmaVjeVW0E0M-22" value="N" style="text;html=1;align=center;verticalAlign=middle;resizable=0;points=[];autosize=1;strokeColor=none;fillColor=none;" vertex="1" parent="1">
          <mxGeometry x="429.37" y="390" width="30" height="30" as="geometry" />
        </mxCell>
        <mxCell id="2nnpZqraZmaVjeVW0E0M-23" value="N:1" style="text;html=1;align=center;verticalAlign=middle;resizable=0;points=[];autosize=1;strokeColor=none;fillColor=none;" vertex="1" parent="1">
          <mxGeometry x="383.75" y="810" width="40" height="30" as="geometry" />
        </mxCell>
        <mxCell id="2nnpZqraZmaVjeVW0E0M-24" value="1:N" style="text;html=1;align=center;verticalAlign=middle;resizable=0;points=[];autosize=1;strokeColor=none;fillColor=none;" vertex="1" parent="1">
          <mxGeometry x="374" y="494.59999999999997" width="40" height="30" as="geometry" />
        </mxCell>
        <mxCell id="2nnpZqraZmaVjeVW0E0M-25" value="N:N" style="text;html=1;align=center;verticalAlign=middle;resizable=0;points=[];autosize=1;strokeColor=none;fillColor=none;" vertex="1" parent="1">
          <mxGeometry x="310" y="688" width="40" height="30" as="geometry" />
        </mxCell>
        <mxCell id="2nnpZqraZmaVjeVW0E0M-26" value="N:N" style="text;html=1;align=center;verticalAlign=middle;resizable=0;points=[];autosize=1;strokeColor=none;fillColor=none;" vertex="1" parent="1">
          <mxGeometry x="147.5" y="619.5999999999999" width="40" height="30" as="geometry" />
        </mxCell>
        <mxCell id="2nnpZqraZmaVjeVW0E0M-27" value="1:N" style="text;html=1;align=center;verticalAlign=middle;resizable=0;points=[];autosize=1;strokeColor=none;fillColor=none;" vertex="1" parent="1">
          <mxGeometry x="354.75" y="604.6" width="40" height="30" as="geometry" />
        </mxCell>
        <mxCell id="2nnpZqraZmaVjeVW0E0M-28" value="1:N" style="text;html=1;align=center;verticalAlign=middle;resizable=0;points=[];autosize=1;strokeColor=none;fillColor=none;" vertex="1" parent="1">
          <mxGeometry x="539.37" y="474.6" width="40" height="30" as="geometry" />
        </mxCell>
        <mxCell id="2nnpZqraZmaVjeVW0E0M-29" value="1:1" style="text;html=1;align=center;verticalAlign=middle;resizable=0;points=[];autosize=1;strokeColor=none;fillColor=none;" vertex="1" parent="1">
          <mxGeometry x="640" y="750" width="40" height="30" as="geometry" />
        </mxCell>
        <mxCell id="2nnpZqraZmaVjeVW0E0M-30" value="1:N" style="text;html=1;align=center;verticalAlign=middle;resizable=0;points=[];autosize=1;strokeColor=none;fillColor=none;" vertex="1" parent="1">
          <mxGeometry x="563.75" y="678.8" width="40" height="30" as="geometry" />
        </mxCell>
        <mxCell id="2nnpZqraZmaVjeVW0E0M-32" value="&lt;b&gt;FuncionarioReserva&lt;/b&gt;" style="text;html=1;align=center;verticalAlign=middle;whiteSpace=wrap;rounded=0;" vertex="1" parent="1">
          <mxGeometry x="256.71000000000004" y="654.6" width="60" height="30" as="geometry" />
        </mxCell>
        <mxCell id="Ok7dYE3IAMVengFxnzop-203" value="&lt;font style=&quot;font-size: 8px;&quot;&gt;Gera&lt;/font&gt;" style="rhombus;whiteSpace=wrap;html=1;" parent="1" vertex="1">
          <mxGeometry x="147.5" y="589.8000000000001" width="38.43" height="19.6" as="geometry" />
        </mxCell>
        <mxCell id="2nnpZqraZmaVjeVW0E0M-35" value="&lt;font style=&quot;font-size: 7px;&quot;&gt;&lt;b&gt;PagamentoReserva&lt;/b&gt;&lt;/font&gt;" style="text;html=1;align=center;verticalAlign=middle;whiteSpace=wrap;rounded=0;" vertex="1" parent="1">
          <mxGeometry x="136.71" y="557.5" width="60" height="30" as="geometry" />
        </mxCell>
        <mxCell id="2nnpZqraZmaVjeVW0E0M-36" value="" style="ellipse;whiteSpace=wrap;html=1;" vertex="1" parent="1">
          <mxGeometry x="220.25" y="960" width="10" height="10" as="geometry" />
        </mxCell>
        <mxCell id="2nnpZqraZmaVjeVW0E0M-37" value="" style="endArrow=none;html=1;rounded=0;entryX=0;entryY=1;entryDx=0;entryDy=0;exitX=0.5;exitY=0;exitDx=0;exitDy=0;" edge="1" parent="1" source="2nnpZqraZmaVjeVW0E0M-36">
          <mxGeometry width="50" height="50" relative="1" as="geometry">
            <mxPoint x="225.25" y="965" as="sourcePoint" />
            <mxPoint x="225.25" y="835" as="targetPoint" />
          </mxGeometry>
        </mxCell>
        <mxCell id="2nnpZqraZmaVjeVW0E0M-38" value="ID_Hotel (FK)" style="text;html=1;align=center;verticalAlign=middle;resizable=0;points=[];autosize=1;strokeColor=none;fillColor=none;" vertex="1" parent="1">
          <mxGeometry x="220.25" y="950" width="100" height="30" as="geometry" />
        </mxCell>
        <mxCell id="2nnpZqraZmaVjeVW0E0M-39" value="" style="ellipse;whiteSpace=wrap;html=1;" vertex="1" parent="1">
          <mxGeometry x="210.25" y="980" width="10" height="10" as="geometry" />
        </mxCell>
        <mxCell id="2nnpZqraZmaVjeVW0E0M-40" value="" style="endArrow=none;html=1;rounded=0;entryX=0;entryY=1;entryDx=0;entryDy=0;exitX=0.5;exitY=0;exitDx=0;exitDy=0;" edge="1" parent="1" source="2nnpZqraZmaVjeVW0E0M-39">
          <mxGeometry width="50" height="50" relative="1" as="geometry">
            <mxPoint x="215.25" y="965" as="sourcePoint" />
            <mxPoint x="215.25" y="835" as="targetPoint" />
          </mxGeometry>
        </mxCell>
        <mxCell id="2nnpZqraZmaVjeVW0E0M-41" value="ID_Funcionario (PK)" style="text;html=1;align=center;verticalAlign=middle;resizable=0;points=[];autosize=1;strokeColor=none;fillColor=none;" vertex="1" parent="1">
          <mxGeometry x="213.35" y="970" width="130" height="30" as="geometry" />
        </mxCell>
        <mxCell id="2nnpZqraZmaVjeVW0E0M-45" value="Id_Funcionario" style="text;html=1;align=center;verticalAlign=middle;resizable=0;points=[];autosize=1;strokeColor=none;fillColor=none;fontSize=10;" vertex="1" parent="1">
          <mxGeometry x="136.71" y="674.6" width="90" height="30" as="geometry" />
        </mxCell>
        <mxCell id="2nnpZqraZmaVjeVW0E0M-46" value="ID_Reserva" style="text;html=1;align=center;verticalAlign=middle;resizable=0;points=[];autosize=1;strokeColor=none;fillColor=none;" vertex="1" parent="1">
          <mxGeometry x="136.71" y="690" width="90" height="30" as="geometry" />
        </mxCell>
        <mxCell id="2nnpZqraZmaVjeVW0E0M-47" value="ID_Pagamento&lt;div&gt;ID_Reserva&lt;/div&gt;" style="text;html=1;align=center;verticalAlign=middle;resizable=0;points=[];autosize=1;strokeColor=none;fillColor=none;" vertex="1" parent="1">
          <mxGeometry x="116.71000000000001" y="530" width="100" height="40" as="geometry" />
        </mxCell>
        <mxCell id="2nnpZqraZmaVjeVW0E0M-48" value="" style="endArrow=none;html=1;rounded=0;entryX=0.5;entryY=1;entryDx=0;entryDy=0;exitX=0.376;exitY=-0.005;exitDx=0;exitDy=0;exitPerimeter=0;" edge="1" parent="1" target="2nnpZqraZmaVjeVW0E0M-49" source="Ok7dYE3IAMVengFxnzop-4">
          <mxGeometry width="50" height="50" relative="1" as="geometry">
            <mxPoint x="359.25" y="400" as="sourcePoint" />
            <mxPoint x="533.97" y="414.80999999999995" as="targetPoint" />
          </mxGeometry>
        </mxCell>
        <mxCell id="2nnpZqraZmaVjeVW0E0M-49" value="" style="ellipse;whiteSpace=wrap;html=1;" vertex="1" parent="1">
          <mxGeometry x="354.75" y="349.99999999999994" width="10" height="10" as="geometry" />
        </mxCell>
        <mxCell id="2nnpZqraZmaVjeVW0E0M-50" value="ID_Hospede (PK)" style="text;html=1;align=center;verticalAlign=middle;resizable=0;points=[];autosize=1;strokeColor=none;fillColor=none;" vertex="1" parent="1">
          <mxGeometry x="354" y="340" width="120" height="30" as="geometry" />
        </mxCell>
        <mxCell id="2nnpZqraZmaVjeVW0E0M-51" value="" style="endArrow=none;html=1;rounded=0;entryX=0.5;entryY=1;entryDx=0;entryDy=0;exitX=0.373;exitY=0;exitDx=0;exitDy=0;exitPerimeter=0;" edge="1" parent="1" target="2nnpZqraZmaVjeVW0E0M-52" source="Ok7dYE3IAMVengFxnzop-6">
          <mxGeometry width="50" height="50" relative="1" as="geometry">
            <mxPoint x="265" y="570" as="sourcePoint" />
            <mxPoint x="438.97" y="599.41" as="targetPoint" />
          </mxGeometry>
        </mxCell>
        <mxCell id="2nnpZqraZmaVjeVW0E0M-52" value="" style="ellipse;whiteSpace=wrap;html=1;" vertex="1" parent="1">
          <mxGeometry x="260" y="534.6" width="10" height="10" as="geometry" />
        </mxCell>
        <mxCell id="2nnpZqraZmaVjeVW0E0M-53" value="&lt;font style=&quot;font-size: 8px;&quot;&gt;ID_Hospede (FK)&lt;/font&gt;" style="text;html=1;align=center;verticalAlign=middle;resizable=0;points=[];autosize=1;strokeColor=none;fillColor=none;fontStyle=1" vertex="1" parent="1">
          <mxGeometry x="260" y="524.6" width="90" height="30" as="geometry" />
        </mxCell>
        <mxCell id="2nnpZqraZmaVjeVW0E0M-54" value="" style="endArrow=none;html=1;rounded=0;entryX=0.5;entryY=1;entryDx=0;entryDy=0;exitX=0.296;exitY=1.002;exitDx=0;exitDy=0;exitPerimeter=0;" edge="1" parent="1" target="2nnpZqraZmaVjeVW0E0M-55" source="Ok7dYE3IAMVengFxnzop-3">
          <mxGeometry width="50" height="50" relative="1" as="geometry">
            <mxPoint x="461" y="614.6" as="sourcePoint" />
            <mxPoint x="635.22" y="739.41" as="targetPoint" />
          </mxGeometry>
        </mxCell>
        <mxCell id="2nnpZqraZmaVjeVW0E0M-55" value="" style="ellipse;whiteSpace=wrap;html=1;" vertex="1" parent="1">
          <mxGeometry x="456.25" y="640" width="10" height="10" as="geometry" />
        </mxCell>
        <mxCell id="2nnpZqraZmaVjeVW0E0M-56" value="&lt;font style=&quot;font-size: 10px;&quot;&gt;ID_Hotel (FK)&lt;/font&gt;" style="text;html=1;align=center;verticalAlign=middle;resizable=0;points=[];autosize=1;strokeColor=none;fillColor=none;" vertex="1" parent="1">
          <mxGeometry x="459.37" y="630" width="80" height="30" as="geometry" />
        </mxCell>
        <mxCell id="2nnpZqraZmaVjeVW0E0M-58" value="" style="endArrow=none;html=1;rounded=0;entryX=0.5;entryY=1;entryDx=0;entryDy=0;" edge="1" parent="1" target="2nnpZqraZmaVjeVW0E0M-59">
          <mxGeometry width="50" height="50" relative="1" as="geometry">
            <mxPoint x="410" y="630" as="sourcePoint" />
            <mxPoint x="584.45" y="741.8799999999999" as="targetPoint" />
          </mxGeometry>
        </mxCell>
        <mxCell id="2nnpZqraZmaVjeVW0E0M-59" value="" style="ellipse;whiteSpace=wrap;html=1;" vertex="1" parent="1">
          <mxGeometry x="405.48" y="737.4699999999999" width="10" height="10" as="geometry" />
        </mxCell>
        <mxCell id="2nnpZqraZmaVjeVW0E0M-60" value="ID_Reserva (FK)" style="text;html=1;align=center;verticalAlign=middle;resizable=0;points=[];autosize=1;strokeColor=none;fillColor=none;" vertex="1" parent="1">
          <mxGeometry x="406.25" y="728" width="110" height="30" as="geometry" />
        </mxCell>
      </root>
    </mxGraphModel>
  </diagram>
</mxfile>
